<svg width="318" height="177" viewBox="0 0 318 177" fill="none" xmlns="http://www.w3.org/2000/svg">
<path d="M110.683 164.057C109.097 164.057 107.81 162.77 107.81 161.185V153.884C105.211 152.767 103.386 150.182 103.386 147.178C103.386 144.173 105.211 141.588 107.81 140.471V129.722C107.81 128.137 109.097 126.85 110.683 126.85C112.268 126.85 113.555 128.137 113.555 129.722V140.471C116.154 141.588 117.978 144.173 117.978 147.178C117.978 150.182 116.153 152.767 113.555 153.884V161.185C113.555 162.77 112.269 164.057 110.683 164.057ZM110.683 145.627C109.827 145.627 109.13 146.322 109.13 147.178C109.13 148.033 109.827 148.729 110.683 148.729C111.538 148.729 112.234 148.033 112.234 147.178C112.234 146.322 111.538 145.627 110.683 145.627Z" fill="black"/>
<path fill-rule="evenodd" clip-rule="evenodd" d="M81.3148 164.057H96.5028C98.0896 164.057 99.3749 162.77 99.3749 161.185V150.05C99.3749 148.464 98.0882 147.178 96.5028 147.178H81.3148C79.7294 147.178 78.4427 148.464 78.4427 150.05V161.185C78.4427 162.77 79.7294 164.057 81.3148 164.057ZM93.6306 158.313H84.187V152.922H93.6306V158.313Z" fill="black"/>
<path fill-rule="evenodd" clip-rule="evenodd" d="M58.5892 164.057H73.7786C75.364 164.057 76.6507 162.77 76.6507 161.185V150.05C76.6507 148.464 75.364 147.178 73.7786 147.178H58.5892C57.0038 147.178 55.7171 148.464 55.7171 150.05V161.185C55.7171 162.77 57.0038 164.057 58.5892 164.057ZM61.4614 158.313H70.9064V152.922H61.4614V158.313Z" fill="black"/>
<path fill-rule="evenodd" clip-rule="evenodd" d="M96.5028 144.294H81.3148C79.7294 144.294 78.4427 143.008 78.4427 141.422V130.287C78.4427 128.701 79.7294 127.415 81.3148 127.415H96.5028C98.0882 127.415 99.3749 128.701 99.3749 130.287V141.422C99.3749 143.008 98.0896 144.294 96.5028 144.294ZM93.6306 138.55H84.187V133.159H93.6306V138.55Z" fill="black"/>
<path fill-rule="evenodd" clip-rule="evenodd" d="M58.5892 144.294H73.7786C75.364 144.294 76.6507 143.008 76.6507 141.422V130.287C76.6507 128.701 75.364 127.415 73.7786 127.415H58.5892C57.0038 127.415 55.7171 128.701 55.7171 130.287V141.422C55.7171 143.008 57.0038 144.294 58.5892 144.294ZM61.4614 138.55H70.9064V133.159H61.4614V138.55Z" fill="black"/>
<path fill-rule="evenodd" clip-rule="evenodd" d="M51.2219 164.057H36.034C34.4486 164.057 33.1618 162.77 33.1618 161.185V150.05C33.1618 148.464 34.4486 147.178 36.034 147.178H51.2219C52.8073 147.178 54.0941 148.464 54.0941 150.05V161.185C54.0941 162.77 52.8088 164.057 51.2219 164.057ZM48.3498 158.313H38.9061V152.922H48.3498V158.313Z" fill="black"/>
<path fill-rule="evenodd" clip-rule="evenodd" d="M36.034 144.294H51.2219C52.8088 144.294 54.0941 143.008 54.0941 141.422V130.287C54.0941 128.701 52.8073 127.415 51.2219 127.415H36.034C34.4486 127.415 33.1618 128.701 33.1618 130.287V141.422C33.1618 143.008 34.4486 144.294 36.034 144.294ZM38.9061 138.55H48.3498V133.159H38.9061V138.55Z" fill="black"/>
<path fill-rule="evenodd" clip-rule="evenodd" d="M148.833 132.441C147.248 132.441 145.961 131.154 145.961 129.568V118.819C143.362 117.702 141.538 115.117 141.538 112.113C141.538 109.109 143.363 106.524 145.961 105.406V98.1054C145.961 96.52 147.248 95.2333 148.833 95.2333C150.419 95.2333 151.705 96.52 151.705 98.1054V105.406C154.305 106.524 156.129 109.109 156.129 112.113C156.129 115.117 154.303 117.702 151.705 118.819V129.568C151.705 131.154 150.419 132.441 148.833 132.441ZM147.282 112.111C147.282 111.256 147.977 110.561 148.833 110.561C149.688 110.561 150.384 111.256 150.384 112.111C150.384 112.967 149.689 113.662 148.833 113.662C147.977 113.662 147.282 112.967 147.282 112.111Z" fill="black"/>
<path fill-rule="evenodd" clip-rule="evenodd" d="M163.588 129.568C163.588 131.154 164.874 132.441 166.46 132.441C168.047 132.441 169.332 131.154 169.33 129.568V126.004C171.93 124.887 173.755 122.302 173.755 119.298C173.755 116.293 171.931 113.708 169.332 112.591V98.1054C169.332 96.52 168.045 95.2333 166.46 95.2333C164.874 95.2333 163.588 96.52 163.588 98.1054V112.591C160.99 113.708 159.164 116.293 159.164 119.298C159.164 122.3 160.988 124.887 163.588 126.004V129.568ZM166.461 117.745C165.605 117.745 164.91 118.44 164.91 119.296C164.91 120.152 165.605 120.847 166.461 120.847C167.317 120.847 168.012 120.152 168.012 119.296C168.012 118.44 167.316 117.745 166.461 117.745Z" fill="black"/>
<path fill-rule="evenodd" clip-rule="evenodd" d="M166.461 86.7719C164.876 86.7719 163.589 85.4852 163.589 83.8998V66.845C163.589 65.2595 164.876 63.9728 166.461 63.9728C168.047 63.9728 169.333 65.2595 169.333 66.845V83.8998C169.333 85.4852 168.047 86.7719 166.461 86.7719Z" fill="black"/>
<path fill-rule="evenodd" clip-rule="evenodd" d="M145.961 83.8998C145.961 85.4852 147.248 86.7719 148.833 86.7719C150.419 86.7719 151.705 85.4852 151.705 83.8998V66.845C151.705 65.2595 150.419 63.9728 148.833 63.9728C147.248 63.9728 145.961 65.2595 145.961 66.845V83.8998Z" fill="black"/>
<path fill-rule="evenodd" clip-rule="evenodd" d="M148.833 57.2836C147.248 57.2836 145.961 55.9969 145.961 54.4114V53.9993C145.961 52.4138 147.248 51.1271 148.833 51.1271C150.419 51.1271 151.705 52.4138 151.705 53.9993V54.4114C151.705 55.9969 150.419 57.2836 148.833 57.2836Z" fill="black"/>
<path fill-rule="evenodd" clip-rule="evenodd" d="M163.589 54.4114C163.589 55.9969 164.876 57.2836 166.461 57.2836C168.047 57.2836 169.333 55.9969 169.333 54.4114V53.9993C169.333 52.4138 168.047 51.1271 166.461 51.1271C164.876 51.1271 163.589 52.4138 163.589 53.9993V54.4114Z" fill="black"/>
<path fill-rule="evenodd" clip-rule="evenodd" d="M166.461 44.2742C164.876 44.2742 163.589 42.9875 163.589 41.402V40.9899C163.589 39.4045 164.876 38.1177 166.461 38.1177C168.047 38.1177 169.333 39.4045 169.333 40.9899V41.402C169.333 42.9889 168.047 44.2742 166.461 44.2742Z" fill="black"/>
<path fill-rule="evenodd" clip-rule="evenodd" d="M145.961 41.402C145.961 42.9875 147.248 44.2742 148.833 44.2742C150.419 44.2742 151.705 42.9889 151.705 41.402V40.9899C151.705 39.4045 150.419 38.1177 148.833 38.1177C147.248 38.1177 145.961 39.4045 145.961 40.9899V41.402Z" fill="black"/>
<path fill-rule="evenodd" clip-rule="evenodd" d="M148.833 31.2648C147.248 31.2648 145.961 29.9781 145.961 28.3926V27.9805C145.961 26.3951 147.248 25.1083 148.833 25.1083C150.419 25.1083 151.705 26.3951 151.705 27.9805V28.3926C151.705 29.9781 150.419 31.2648 148.833 31.2648Z" fill="black"/>
<path fill-rule="evenodd" clip-rule="evenodd" d="M163.589 28.3926C163.589 29.9781 164.876 31.2648 166.461 31.2648C168.047 31.2648 169.333 29.9781 169.333 28.3926V27.9805C169.333 26.3951 168.047 25.1083 166.461 25.1083C164.876 25.1083 163.589 26.3951 163.589 27.9805V28.3926Z" fill="black"/>
<path fill-rule="evenodd" clip-rule="evenodd" d="M166.461 18.2554C164.876 18.2554 163.589 16.9687 163.589 15.3832V14.9711C163.589 13.3857 164.876 12.0989 166.461 12.0989C168.047 12.0989 169.333 13.3857 169.333 14.9711V15.3832C169.333 16.9687 168.047 18.2554 166.461 18.2554Z" fill="black"/>
<path fill-rule="evenodd" clip-rule="evenodd" d="M145.961 15.3832C145.961 16.9687 147.248 18.2554 148.833 18.2554C150.419 18.2554 151.705 16.9687 151.705 15.3832V14.9711C151.705 13.3857 150.419 12.0989 148.833 12.0989C147.248 12.0989 145.961 13.3857 145.961 14.9711V15.3832Z" fill="black"/>
<path d="M140.932 153.89C140.932 152.304 142.219 151.018 143.804 151.018H151.105C152.222 148.418 154.807 146.593 157.811 146.593C160.816 146.593 163.401 148.418 164.518 151.018H175.267C176.852 151.018 178.139 152.304 178.139 153.89C178.139 155.475 176.852 156.762 175.267 156.762H164.518C163.401 159.361 160.816 161.185 157.811 161.185C154.807 161.185 152.222 159.36 151.105 156.762H143.804C142.219 156.762 140.932 155.477 140.932 153.89ZM159.362 153.89C159.362 153.034 158.667 152.337 157.811 152.337C156.956 152.337 156.26 153.034 156.26 153.89C156.26 154.746 156.956 155.441 157.811 155.441C158.667 155.441 159.362 154.746 159.362 153.89Z" fill="black"/>
<path d="M298.607 164.057C297.022 164.057 295.735 162.77 295.735 161.185V153.884C293.136 152.767 291.311 150.182 291.311 147.178C291.311 144.173 293.136 141.588 295.735 140.471V129.722C295.735 128.137 297.022 126.85 298.607 126.85C300.193 126.85 301.479 128.137 301.479 129.722V140.471C304.079 141.588 305.903 144.173 305.903 147.178C305.903 150.182 304.077 152.767 301.479 153.884V161.185C301.479 162.77 300.194 164.057 298.607 164.057ZM298.607 145.627C297.751 145.627 297.055 146.322 297.055 147.178C297.055 148.033 297.751 148.729 298.607 148.729C299.463 148.729 300.158 148.033 300.158 147.178C300.158 146.322 299.463 145.627 298.607 145.627Z" fill="black"/>
<path fill-rule="evenodd" clip-rule="evenodd" d="M269.24 164.057H284.427C286.014 164.057 287.3 162.77 287.3 161.185V150.05C287.3 148.464 286.013 147.178 284.427 147.178H269.24C267.654 147.178 266.367 148.464 266.367 150.05V161.185C266.367 162.77 267.654 164.057 269.24 164.057ZM281.555 158.313H272.112V152.922H281.555V158.313Z" fill="black"/>
<path fill-rule="evenodd" clip-rule="evenodd" d="M246.514 164.057H261.703C263.289 164.057 264.575 162.77 264.575 161.185V150.05C264.575 148.464 263.289 147.178 261.703 147.178H246.514C244.929 147.178 243.642 148.464 243.642 150.05V161.185C243.642 162.77 244.929 164.057 246.514 164.057ZM249.386 158.313H258.831V152.922H249.386V158.313Z" fill="black"/>
<path fill-rule="evenodd" clip-rule="evenodd" d="M284.427 144.294H269.24C267.654 144.294 266.367 143.008 266.367 141.422V130.287C266.367 128.701 267.654 127.415 269.24 127.415H284.427C286.013 127.415 287.3 128.701 287.3 130.287V141.422C287.3 143.008 286.014 144.294 284.427 144.294ZM281.555 138.55H272.112V133.159H281.555V138.55Z" fill="black"/>
<path fill-rule="evenodd" clip-rule="evenodd" d="M246.514 144.294H261.703C263.289 144.294 264.575 143.008 264.575 141.422V130.287C264.575 128.701 263.289 127.415 261.703 127.415H246.514C244.929 127.415 243.642 128.701 243.642 130.287V141.422C243.642 143.008 244.929 144.294 246.514 144.294ZM249.386 138.55H258.831V133.159H249.386V138.55Z" fill="black"/>
<path fill-rule="evenodd" clip-rule="evenodd" d="M239.147 164.057H223.959C222.373 164.057 221.087 162.77 221.087 161.185V150.05C221.087 148.464 222.373 147.178 223.959 147.178H239.147C240.732 147.178 242.019 148.464 242.019 150.05V161.185C242.019 162.77 240.733 164.057 239.147 164.057ZM236.274 158.313H226.831V152.922H236.274V158.313Z" fill="black"/>
<path fill-rule="evenodd" clip-rule="evenodd" d="M223.959 144.294H239.147C240.733 144.294 242.019 143.008 242.019 141.422V130.287C242.019 128.701 240.732 127.415 239.147 127.415H223.959C222.373 127.415 221.087 128.701 221.087 130.287V141.422C221.087 143.008 222.373 144.294 223.959 144.294ZM226.831 138.55H236.274V133.159H226.831V138.55Z" fill="black"/>
<path fill-rule="evenodd" clip-rule="evenodd" d="M64.4582 118.514C35.7123 118.514 12.3273 95.127 12.3273 66.3811C12.3273 37.6352 35.7137 14.2502 64.4582 14.2502C93.2027 14.2502 116.589 37.6352 116.589 66.3811C116.589 95.127 93.2027 118.514 64.4582 118.514ZM18.0716 66.3811C18.0716 40.8032 38.8803 19.9945 64.4582 19.9945C90.0347 19.9945 110.845 40.8046 110.845 66.3811C110.845 91.9605 90.0361 112.769 64.4582 112.769C38.8803 112.769 18.0716 91.9605 18.0716 66.3811Z" fill="black"/>
<path fill-rule="evenodd" clip-rule="evenodd" d="M200.693 66.3811C200.693 95.127 224.079 118.514 252.824 118.514C281.57 118.514 304.955 95.127 304.955 66.3811C304.955 37.6352 281.57 14.2502 252.824 14.2502C224.079 14.2502 200.693 37.6352 200.693 66.3811ZM252.824 19.9945C227.246 19.9945 206.437 40.8032 206.437 66.3811C206.437 91.9605 227.246 112.769 252.824 112.769C278.402 112.769 299.21 91.9605 299.21 66.3811C299.212 40.8046 278.402 19.9945 252.824 19.9945Z" fill="black"/>
<path fill-rule="evenodd" clip-rule="evenodd" d="M18.0716 66.3811C18.0716 40.8032 38.8803 19.9945 64.4582 19.9945C90.0347 19.9945 110.845 40.8046 110.845 66.3811C110.845 91.9605 90.0361 112.769 64.4582 112.769C38.8803 112.769 18.0716 91.9605 18.0716 66.3811ZM64.4582 107.503C41.784 107.503 23.3362 89.0553 23.3362 66.3811C23.3362 43.7069 41.784 25.2606 64.4582 25.2606C66.0436 25.2606 67.3303 26.5473 67.3303 28.1327C67.3303 29.7181 66.0436 31.0049 64.4582 31.0049C44.952 31.0049 29.0805 46.8749 29.0805 66.3811C29.0805 85.8887 44.9506 101.759 64.4582 101.759C66.0436 101.759 67.3303 103.046 67.3303 104.631C67.3303 106.216 66.0436 107.503 64.4582 107.503ZM50.2569 66.3811C50.2569 74.212 56.6273 80.5839 64.4582 80.5839C72.2877 80.5839 78.6595 74.212 78.6595 66.3811C78.6595 58.5502 72.2891 52.1798 64.4582 52.1798C56.6273 52.1798 50.2569 58.5502 50.2569 66.3811Z" fill="black"/>
<path fill-rule="evenodd" clip-rule="evenodd" d="M64.4582 80.5839C56.6273 80.5839 50.2569 74.212 50.2569 66.3811C50.2569 58.5502 56.6273 52.1798 64.4582 52.1798C72.2891 52.1798 78.6595 58.5502 78.6595 66.3811C78.6595 74.212 72.2877 80.5839 64.4582 80.5839ZM64.4582 57.9255C59.7953 57.9255 56.0012 61.7196 56.0012 66.3825C56.0012 71.0469 59.7953 74.841 64.4582 74.841C69.1211 74.841 72.9152 71.0469 72.9152 66.3825C72.9138 61.7182 69.1211 57.9255 64.4582 57.9255Z" fill="#AC2199"/>
<path d="M56.0012 66.3825C56.0012 61.7196 59.7953 57.9255 64.4582 57.9255C69.1211 57.9255 72.9138 61.7182 72.9152 66.3825C72.9152 71.0469 69.1211 74.841 64.4582 74.841C59.7953 74.841 56.0012 71.0469 56.0012 66.3825Z" fill="#AC2199"/>
<path fill-rule="evenodd" clip-rule="evenodd" d="M252.824 19.9945C227.246 19.9945 206.437 40.8032 206.437 66.3811C206.437 91.9605 227.246 112.769 252.824 112.769C278.402 112.769 299.21 91.9605 299.21 66.3811C299.212 40.8046 278.402 19.9945 252.824 19.9945ZM238.622 66.3811C238.622 74.212 244.993 80.5839 252.824 80.5839C260.655 80.5839 267.025 74.212 267.025 66.3811C267.025 58.5502 260.655 52.1798 252.824 52.1798C244.993 52.1798 238.622 58.5502 238.622 66.3811ZM211.703 66.3811C211.703 89.0553 230.15 107.503 252.824 107.503C254.411 107.503 255.696 106.216 255.696 104.631C255.696 103.046 254.409 101.759 252.824 101.759C233.318 101.759 217.448 85.8887 217.448 66.3811C217.448 46.8749 233.318 31.0049 252.824 31.0049C254.409 31.0049 255.696 29.7181 255.696 28.1327C255.696 26.5473 254.409 25.2606 252.824 25.2606C230.15 25.2606 211.703 43.7069 211.703 66.3811Z" fill="black"/>
<path d="M252.824 57.9255C248.161 57.9255 244.367 61.7196 244.367 66.3825C244.367 71.0469 248.161 74.841 252.824 74.841C257.487 74.841 261.281 71.0469 261.281 66.3825C261.281 61.7182 257.487 57.9255 252.824 57.9255Z" fill="#489C1A"/>
<path fill-rule="evenodd" clip-rule="evenodd" d="M12.0975 176.893H305.903C312.573 176.893 318 171.466 318 164.795V12.0989C318 5.42693 312.573 0 305.903 0H12.0975C5.42692 0 0 5.42693 0 12.0989V164.795C0 171.466 5.42692 176.893 12.0975 176.893ZM305.903 171.149H193.557V5.7443H305.903C309.407 5.7443 312.256 8.59634 312.256 12.0989V164.795C312.256 168.299 309.405 171.149 305.903 171.149ZM187.813 171.149H130.187V5.74573H187.813V171.149ZM5.7443 12.0989C5.7443 8.59634 8.59347 5.74573 12.0975 5.74573H124.443V171.149H12.0975C8.59347 171.149 5.7443 168.298 5.7443 164.795V12.0989Z" fill="black"/>
<path fill-rule="evenodd" clip-rule="evenodd" d="M252.824 80.5839C244.993 80.5839 238.622 74.212 238.622 66.3811C238.622 58.5502 244.993 52.1798 252.824 52.1798C260.655 52.1798 267.025 58.5502 267.025 66.3811C267.025 74.212 260.655 80.5839 252.824 80.5839ZM244.367 66.3825C244.367 61.7196 248.161 57.9255 252.824 57.9255C257.487 57.9255 261.281 61.7182 261.281 66.3825C261.281 71.0469 257.487 74.841 252.824 74.841C248.161 74.841 244.367 71.0469 244.367 66.3825Z" fill="#489C1A"/>
<path d="M23.3362 66.3811C23.3362 89.0553 41.784 107.503 64.4582 107.503C66.0436 107.503 67.3303 106.216 67.3303 104.631C67.3303 103.046 66.0436 101.759 64.4582 101.759C44.9506 101.759 29.0805 85.8887 29.0805 66.3811C29.0805 46.8749 44.952 31.0049 64.4582 31.0049C66.0436 31.0049 67.3303 29.7181 67.3303 28.1327C67.3303 26.5473 66.0436 25.2606 64.4582 25.2606C41.784 25.2606 23.3362 43.7069 23.3362 66.3811Z" fill="#615050"/>
<path d="M252.824 107.503C230.15 107.503 211.703 89.0553 211.703 66.3811C211.703 43.7069 230.15 25.2606 252.824 25.2606C254.409 25.2606 255.696 26.5473 255.696 28.1327C255.696 29.7181 254.409 31.0049 252.824 31.0049C233.318 31.0049 217.448 46.8749 217.448 66.3811C217.448 85.8887 233.318 101.759 252.824 101.759C254.409 101.759 255.696 103.046 255.696 104.631C255.696 106.216 254.411 107.503 252.824 107.503Z" fill="#615050"/>
<path fill-rule="evenodd" clip-rule="evenodd" d="M12.0975 5.74573C8.59347 5.74573 5.7443 8.59634 5.7443 12.0989V164.795C5.7443 168.298 8.59347 171.149 12.0975 171.149H124.443V5.74573H12.0975ZM107.81 161.185C107.81 162.77 109.097 164.057 110.683 164.057C112.269 164.057 113.555 162.77 113.555 161.185V153.884C116.153 152.767 117.978 150.182 117.978 147.178C117.978 144.173 116.154 141.588 113.555 140.471V129.722C113.555 128.137 112.268 126.85 110.683 126.85C109.097 126.85 107.81 128.137 107.81 129.722V140.471C105.211 141.588 103.386 144.173 103.386 147.178C103.386 150.182 105.211 152.767 107.81 153.884V161.185ZM96.5028 164.057H81.3148C79.7294 164.057 78.4427 162.77 78.4427 161.185V150.05C78.4427 148.464 79.7294 147.178 81.3148 147.178H96.5028C98.0882 147.178 99.3749 148.464 99.3749 150.05V161.185C99.3749 162.77 98.0896 164.057 96.5028 164.057ZM73.7786 164.057H58.5892C57.0038 164.057 55.7171 162.77 55.7171 161.185V150.05C55.7171 148.464 57.0038 147.178 58.5892 147.178H73.7786C75.364 147.178 76.6507 148.464 76.6507 150.05V161.185C76.6507 162.77 75.364 164.057 73.7786 164.057ZM81.3148 144.294H96.5028C98.0896 144.294 99.3749 143.008 99.3749 141.422V130.287C99.3749 128.701 98.0882 127.415 96.5028 127.415H81.3148C79.7294 127.415 78.4427 128.701 78.4427 130.287V141.422C78.4427 143.008 79.7294 144.294 81.3148 144.294ZM73.7786 144.294H58.5892C57.0038 144.294 55.7171 143.008 55.7171 141.422V130.287C55.7171 128.701 57.0038 127.415 58.5892 127.415H73.7786C75.364 127.415 76.6507 128.701 76.6507 130.287V141.422C76.6507 143.008 75.364 144.294 73.7786 144.294ZM36.034 164.057H51.2219C52.8088 164.057 54.0941 162.77 54.0941 161.185V150.05C54.0941 148.464 52.8073 147.178 51.2219 147.178H36.034C34.4486 147.178 33.1618 148.464 33.1618 150.05V161.185C33.1618 162.77 34.4486 164.057 36.034 164.057ZM51.2219 144.294H36.034C34.4486 144.294 33.1618 143.008 33.1618 141.422V130.287C33.1618 128.701 34.4486 127.415 36.034 127.415H51.2219C52.8073 127.415 54.0941 128.701 54.0941 130.287V141.422C54.0941 143.008 52.8088 144.294 51.2219 144.294ZM12.3273 66.3811C12.3273 95.127 35.7123 118.514 64.4582 118.514C93.2027 118.514 116.589 95.127 116.589 66.3811C116.589 37.6352 93.2027 14.2502 64.4582 14.2502C35.7137 14.2502 12.3273 37.6352 12.3273 66.3811Z" fill="#383838"/>
<path fill-rule="evenodd" clip-rule="evenodd" d="M130.187 171.149H187.813V5.74573H130.187V171.149ZM145.961 129.568C145.961 131.154 147.248 132.441 148.833 132.441C150.419 132.441 151.705 131.154 151.705 129.568V118.819C154.303 117.702 156.129 115.117 156.129 112.113C156.129 109.109 154.305 106.524 151.705 105.406V98.1054C151.705 96.52 150.419 95.2333 148.833 95.2333C147.248 95.2333 145.961 96.52 145.961 98.1054V105.406C143.363 106.524 141.538 109.109 141.538 112.113C141.538 115.117 143.362 117.702 145.961 118.819V129.568ZM166.46 132.441C164.874 132.441 163.588 131.154 163.588 129.568V126.004C160.988 124.887 159.164 122.3 159.164 119.298C159.164 116.293 160.99 113.708 163.588 112.591V98.1054C163.588 96.52 164.874 95.2333 166.46 95.2333C168.045 95.2333 169.332 96.52 169.332 98.1054V112.591C171.931 113.708 173.755 116.293 173.755 119.298C173.755 122.302 171.93 124.887 169.33 126.004V129.568C169.332 131.154 168.047 132.441 166.46 132.441ZM163.589 83.8998C163.589 85.4852 164.876 86.7719 166.461 86.7719C168.047 86.7719 169.333 85.4852 169.333 83.8998V66.845C169.333 65.2595 168.047 63.9728 166.461 63.9728C164.876 63.9728 163.589 65.2595 163.589 66.845V83.8998ZM148.833 86.7719C147.248 86.7719 145.961 85.4852 145.961 83.8998V66.845C145.961 65.2595 147.248 63.9728 148.833 63.9728C150.419 63.9728 151.705 65.2595 151.705 66.845V83.8998C151.705 85.4852 150.419 86.7719 148.833 86.7719ZM145.961 54.4114C145.961 55.9969 147.248 57.2836 148.833 57.2836C150.419 57.2836 151.705 55.9969 151.705 54.4114V53.9993C151.705 52.4138 150.419 51.1271 148.833 51.1271C147.248 51.1271 145.961 52.4138 145.961 53.9993V54.4114ZM166.461 57.2836C164.876 57.2836 163.589 55.9969 163.589 54.4114V53.9993C163.589 52.4138 164.876 51.1271 166.461 51.1271C168.047 51.1271 169.333 52.4138 169.333 53.9993V54.4114C169.333 55.9969 168.047 57.2836 166.461 57.2836ZM163.589 41.402C163.589 42.9875 164.876 44.2742 166.461 44.2742C168.047 44.2742 169.333 42.9889 169.333 41.402V40.9899C169.333 39.4045 168.047 38.1177 166.461 38.1177C164.876 38.1177 163.589 39.4045 163.589 40.9899V41.402ZM148.833 44.2742C147.248 44.2742 145.961 42.9875 145.961 41.402V40.9899C145.961 39.4045 147.248 38.1177 148.833 38.1177C150.419 38.1177 151.705 39.4045 151.705 40.9899V41.402C151.705 42.9889 150.419 44.2742 148.833 44.2742ZM145.961 28.3926C145.961 29.9781 147.248 31.2648 148.833 31.2648C150.419 31.2648 151.705 29.9781 151.705 28.3926V27.9805C151.705 26.3951 150.419 25.1083 148.833 25.1083C147.248 25.1083 145.961 26.3951 145.961 27.9805V28.3926ZM166.461 31.2648C164.876 31.2648 163.589 29.9781 163.589 28.3926V27.9805C163.589 26.3951 164.876 25.1083 166.461 25.1083C168.047 25.1083 169.333 26.3951 169.333 27.9805V28.3926C169.333 29.9781 168.047 31.2648 166.461 31.2648ZM163.589 15.3832C163.589 16.9687 164.876 18.2554 166.461 18.2554C168.047 18.2554 169.333 16.9687 169.333 15.3832V14.9711C169.333 13.3857 168.047 12.0989 166.461 12.0989C164.876 12.0989 163.589 13.3857 163.589 14.9711V15.3832ZM148.833 18.2554C147.248 18.2554 145.961 16.9687 145.961 15.3832V14.9711C145.961 13.3857 147.248 12.0989 148.833 12.0989C150.419 12.0989 151.705 13.3857 151.705 14.9711V15.3832C151.705 16.9687 150.419 18.2554 148.833 18.2554ZM143.804 151.018C142.219 151.018 140.932 152.304 140.932 153.89C140.932 155.477 142.219 156.762 143.804 156.762H151.105C152.222 159.36 154.807 161.185 157.811 161.185C160.816 161.185 163.401 159.361 164.518 156.762H175.267C176.852 156.762 178.139 155.475 178.139 153.89C178.139 152.304 176.852 151.018 175.267 151.018H164.518C163.401 148.418 160.816 146.593 157.811 146.593C154.807 146.593 152.222 148.418 151.105 151.018H143.804Z" fill="#383838"/>
<path fill-rule="evenodd" clip-rule="evenodd" d="M193.557 171.149H305.903C309.405 171.149 312.256 168.299 312.256 164.795V12.0989C312.256 8.59634 309.407 5.7443 305.903 5.7443H193.557V171.149ZM295.735 161.185C295.735 162.77 297.022 164.057 298.607 164.057C300.194 164.057 301.479 162.77 301.479 161.185V153.884C304.077 152.767 305.903 150.182 305.903 147.178C305.903 144.173 304.079 141.588 301.479 140.471V129.722C301.479 128.137 300.193 126.85 298.607 126.85C297.022 126.85 295.735 128.137 295.735 129.722V140.471C293.136 141.588 291.311 144.173 291.311 147.178C291.311 150.182 293.136 152.767 295.735 153.884V161.185ZM284.427 164.057H269.24C267.654 164.057 266.367 162.77 266.367 161.185V150.05C266.367 148.464 267.654 147.178 269.24 147.178H284.427C286.013 147.178 287.3 148.464 287.3 150.05V161.185C287.3 162.77 286.014 164.057 284.427 164.057ZM261.703 164.057H246.514C244.929 164.057 243.642 162.77 243.642 161.185V150.05C243.642 148.464 244.929 147.178 246.514 147.178H261.703C263.289 147.178 264.575 148.464 264.575 150.05V161.185C264.575 162.77 263.289 164.057 261.703 164.057ZM269.24 144.294H284.427C286.014 144.294 287.3 143.008 287.3 141.422V130.287C287.3 128.701 286.013 127.415 284.427 127.415H269.24C267.654 127.415 266.367 128.701 266.367 130.287V141.422C266.367 143.008 267.654 144.294 269.24 144.294ZM261.703 144.294H246.514C244.929 144.294 243.642 143.008 243.642 141.422V130.287C243.642 128.701 244.929 127.415 246.514 127.415H261.703C263.289 127.415 264.575 128.701 264.575 130.287V141.422C264.575 143.008 263.289 144.294 261.703 144.294ZM223.959 164.057H239.147C240.733 164.057 242.019 162.77 242.019 161.185V150.05C242.019 148.464 240.732 147.178 239.147 147.178H223.959C222.373 147.178 221.087 148.464 221.087 150.05V161.185C221.087 162.77 222.373 164.057 223.959 164.057ZM239.147 144.294H223.959C222.373 144.294 221.087 143.008 221.087 141.422V130.287C221.087 128.701 222.373 127.415 223.959 127.415H239.147C240.732 127.415 242.019 128.701 242.019 130.287V141.422C242.019 143.008 240.733 144.294 239.147 144.294ZM252.824 118.514C224.079 118.514 200.693 95.127 200.693 66.3811C200.693 37.6352 224.079 14.2502 252.824 14.2502C281.57 14.2502 304.955 37.6352 304.955 66.3811C304.955 95.127 281.57 118.514 252.824 118.514Z" fill="#383838"/>
<path d="M226.831 138.55H236.274V133.159H226.831V138.55Z" fill="#383838"/>
<path d="M249.386 138.55H258.831V133.159H249.386V138.55Z" fill="#383838"/>
<path d="M281.555 138.55H272.112V133.159H281.555V138.55Z" fill="#383838"/>
<path d="M281.555 158.313H272.112V152.922H281.555V158.313Z" fill="#383838"/>
<path d="M249.386 158.313H258.831V152.922H249.386V158.313Z" fill="#383838"/>
<path d="M236.274 158.313H226.831V152.922H236.274V158.313Z" fill="#383838"/>
<path d="M93.6306 158.313H84.187V152.922H93.6306V158.313Z" fill="#383838"/>
<path d="M61.4614 158.313H70.9064V152.922H61.4614V158.313Z" fill="#383838"/>
<path d="M48.3498 158.313H38.9061V152.922H48.3498V158.313Z" fill="#383838"/>
<path d="M38.9061 138.55H48.3498V133.159H38.9061V138.55Z" fill="#383838"/>
<path d="M61.4614 138.55H70.9064V133.159H61.4614V138.55Z" fill="#383838"/>
<path d="M93.6306 138.55H84.187V133.159H93.6306V138.55Z" fill="#383838"/>
<path d="M110.683 145.627C109.827 145.627 109.13 146.322 109.13 147.178C109.13 148.033 109.827 148.729 110.683 148.729C111.538 148.729 112.234 148.033 112.234 147.178C112.234 146.322 111.538 145.627 110.683 145.627Z" fill="#383838"/>
<path d="M159.362 153.89C159.362 153.034 158.667 152.337 157.811 152.337C156.956 152.337 156.26 153.034 156.26 153.89C156.26 154.746 156.956 155.441 157.811 155.441C158.667 155.441 159.362 154.746 159.362 153.89Z" fill="#383838"/>
<path d="M166.461 117.745C165.605 117.745 164.91 118.44 164.91 119.296C164.91 120.152 165.605 120.847 166.461 120.847C167.317 120.847 168.012 120.152 168.012 119.296C168.012 118.44 167.316 117.745 166.461 117.745Z" fill="#383838"/>
<path d="M147.282 112.111C147.282 111.256 147.977 110.561 148.833 110.561C149.688 110.561 150.384 111.256 150.384 112.111C150.384 112.967 149.689 113.662 148.833 113.662C147.977 113.662 147.282 112.967 147.282 112.111Z" fill="#383838"/>
<path d="M298.607 145.627C297.751 145.627 297.055 146.322 297.055 147.178C297.055 148.033 297.751 148.729 298.607 148.729C299.463 148.729 300.158 148.033 300.158 147.178C300.158 146.322 299.463 145.627 298.607 145.627Z" fill="#383838"/>
<path d="M19.0534 129.777C22.323 129.777 24.9663 132.423 24.9665 135.677C24.9665 138.931 22.3231 141.577 19.0534 141.577C15.7838 141.577 13.1403 138.931 13.1403 135.677C13.1406 132.423 15.784 129.778 19.0534 129.777Z" stroke="black" stroke-width="5.2562"/>
<path d="M19.0534 149.457C22.323 149.457 24.9663 152.102 24.9665 155.356C24.9665 158.611 22.3231 161.257 19.0534 161.257C15.7838 161.256 13.1403 158.611 13.1403 155.356C13.1406 152.102 15.784 149.457 19.0534 149.457Z" stroke="black" stroke-width="5.2562"/>
<path d="M208.934 129.777C212.203 129.777 214.846 132.423 214.847 135.677C214.847 138.931 212.203 141.577 208.934 141.577C205.664 141.577 203.02 138.931 203.02 135.677C203.021 132.423 205.664 129.778 208.934 129.777Z" stroke="black" stroke-width="5.2562"/>
<path d="M208.934 149.457C212.203 149.457 214.846 152.102 214.847 155.356C214.847 158.611 212.203 161.257 208.934 161.257C205.664 161.256 203.02 158.611 203.02 155.356C203.021 152.102 205.664 149.457 208.934 149.457Z" stroke="black" stroke-width="5.2562"/>
</svg>
